<svg width="27" height="36" viewBox="0 0 27 36" fill="none" xmlns="http://www.w3.org/2000/svg">
<path d="M3.375 30V18C3.375 17.2044 3.61205 16.4413 4.03401 15.8787C4.45597 15.3161 5.02826 15 5.625 15H21.375C21.9717 15 22.544 15.3161 22.966 15.8787C23.3879 16.4413 23.625 17.2044 23.625 18V30" stroke="black" stroke-width="2" stroke-linecap="round" stroke-linejoin="round"/>
<path d="M5.625 15V9C5.625 8.20435 5.86205 7.44129 6.28401 6.87868C6.70597 6.31607 7.27826 6 7.875 6H19.125C19.7217 6 20.294 6.31607 20.716 6.87868C21.1379 7.44129 21.375 8.20435 21.375 9V15" stroke="black" stroke-width="2" stroke-linecap="round" stroke-linejoin="round"/>
<path d="M3.375 27H23.625" stroke="black" stroke-width="2" stroke-linecap="round" stroke-linejoin="round"/>
</svg>
