<svg width="53" height="40" viewBox="0 0 53 40" fill="none" xmlns="http://www.w3.org/2000/svg">
<path d="M34.5303 23.1091C36.3765 22.1631 37.9009 20.9017 38.9795 19.4274C40.0581 17.953 40.6605 16.3074 40.7377 14.6243C40.7416 14.5429 40.7236 14.4618 40.685 14.3858C40.6464 14.3098 40.5878 14.2404 40.5129 14.1818C40.4383 14.1227 40.3486 14.0756 40.2492 14.0434C40.1499 14.0111 40.0429 13.9943 39.9347 13.994H13.0733C12.9652 13.9943 12.8582 14.0111 12.7588 14.0434C12.6595 14.0756 12.5698 14.1227 12.4952 14.1818C12.4202 14.2404 12.3617 14.3098 12.3231 14.3858C12.2844 14.4618 12.2665 14.5429 12.2703 14.6243C12.3469 16.3075 12.949 17.9533 14.0277 19.4277C15.1063 20.9021 16.6311 22.1635 18.4777 23.1091L12.3024 38.6121C12.2651 38.7048 12.2577 38.8029 12.281 38.8982C12.3042 38.9935 12.3574 39.0832 12.4361 39.1598C12.5147 39.2363 12.6165 39.2976 12.733 39.3383C12.8495 39.3791 12.9772 39.3981 13.1055 39.394C13.2847 39.3993 13.4611 39.3593 13.6066 39.2802C13.7522 39.2011 13.8584 39.0876 13.9085 38.9576L16.687 31.9879H36.4576L39.0915 38.4788C39.1431 38.6076 39.25 38.7199 39.3954 38.7978C39.5408 38.8757 39.7164 38.9148 39.8946 38.9091C39.9718 38.9176 40.0502 38.9176 40.1274 38.9091C40.2288 38.8862 40.3233 38.8484 40.4052 38.7979C40.4872 38.7474 40.5552 38.6852 40.6052 38.6148C40.6552 38.5443 40.6863 38.4672 40.6966 38.3877C40.7069 38.3082 40.6964 38.2279 40.6655 38.1515L34.5303 23.1091ZM13.9406 15.2303H39.0755C38.8787 16.675 38.2459 18.0665 37.2255 19.2978C36.2051 20.5291 34.8243 21.5676 33.1893 22.3333L33.0688 22.3818C31.0881 23.2818 28.82 23.7573 26.508 23.7573C24.1961 23.7573 21.9279 23.2818 19.9473 22.3818C19.9117 22.3599 19.8708 22.3434 19.8268 22.3333C18.1903 21.5682 16.8079 20.5301 15.7861 19.2987C14.7643 18.0674 14.1302 16.6756 13.9326 15.2303H13.9406ZM26.5 24.9697C28.8002 24.9733 31.0675 24.5575 33.109 23.7576L34.5303 27.3212H18.4697L19.8911 23.7576C21.9321 24.5584 24.1997 24.9743 26.5 24.9697ZM17.1046 30.7758L17.9959 28.5333H35.0523L35.9597 30.7758H17.1046ZM20.7503 6.76365C17.4258 9.69698 18.9917 12.0546 20.2123 13.2C20.2879 13.2703 20.3834 13.327 20.4918 13.3658C20.6001 13.4046 20.7187 13.4246 20.8386 13.4243C20.9906 13.4246 21.1396 13.3925 21.2683 13.3315C21.397 13.2705 21.5002 13.1833 21.5658 13.0798C21.6313 12.9764 21.6567 12.861 21.6389 12.7471C21.621 12.6332 21.5608 12.5254 21.465 12.4364C19.859 10.9212 20.0115 9.2788 21.9709 7.55153C24.38 5.40001 25.2312 3.79395 25.4159 2.70304C26.9387 3.78104 28.1097 5.1108 28.8368 6.58789C28.628 6.80001 28.3952 7.03031 28.1221 7.27274C25.424 9.65456 27.2067 11.5152 28.1221 12.2243C28.193 12.2883 28.2806 12.3407 28.3795 12.378C28.4784 12.4154 28.5865 12.4369 28.6969 12.4412C28.8073 12.4456 28.9178 12.4327 29.0213 12.4033C29.1248 12.3739 29.2192 12.3288 29.2985 12.2706C29.3778 12.2124 29.4403 12.1425 29.4821 12.0652C29.5239 11.988 29.5442 11.905 29.5415 11.8216C29.5389 11.7382 29.5135 11.656 29.4668 11.5804C29.4202 11.5047 29.3533 11.4371 29.2705 11.3818C27.9856 10.3697 28.0097 9.25456 29.3588 8.06668C29.7522 7.72454 30.1169 7.36425 30.4509 6.98789C31.0729 6.33024 31.5027 5.58035 31.7117 4.78789C33.3177 5.81213 35.6064 8.1091 33.8236 12.2849C33.7912 12.3609 33.779 12.4409 33.7877 12.5205C33.7964 12.6001 33.8258 12.6776 33.8743 12.7486C33.9228 12.8195 33.9894 12.8825 34.0703 12.934C34.1512 12.9855 34.2448 13.0244 34.3456 13.0485C34.4255 13.0576 34.5067 13.0576 34.5865 13.0485C34.7637 13.0546 34.9385 13.0163 35.0838 12.9396C35.229 12.8628 35.3365 12.752 35.3896 12.6243C38.3206 5.71516 31.2138 3.06668 31.1415 3.03031C30.9833 2.97274 30.8045 2.9559 30.6323 2.98237C30.4602 3.00885 30.3044 3.07718 30.1887 3.17691C30.0729 3.27663 30.0037 3.40223 29.9916 3.53448C29.9795 3.66673 30.0252 3.79833 30.1217 3.9091C30.2564 4.35831 30.1648 4.82927 29.8647 5.23031C28.6648 3.45695 26.949 1.91133 24.8458 0.709102C24.6969 0.631237 24.5175 0.593652 24.3367 0.602454C24.1559 0.611256 23.9844 0.665927 23.85 0.757587C23.7116 0.850498 23.6199 0.976683 23.5907 1.11475C23.5614 1.25282 23.5963 1.39429 23.6894 1.51516C23.6894 1.51516 24.8297 3.16365 20.7503 6.76365Z" fill="black"/>
<path d="M18.3011 6.32119C18.4112 6.32028 18.5202 6.30384 18.6223 6.2727C18.7233 6.24179 18.8148 6.19569 18.8914 6.13722C18.968 6.07875 19.0281 6.00912 19.0679 5.93258C19.1077 5.85604 19.1265 5.77419 19.123 5.692C19.1196 5.60982 19.094 5.52902 19.0479 5.45452C18.7821 5.06355 18.6296 4.63437 18.6006 4.19549C18.5715 3.75662 18.6665 3.3181 18.8793 2.90907C19.3499 3.5811 20.0698 4.13502 20.9511 4.50301C21.1396 4.5777 21.3597 4.59285 21.563 4.54512C21.7663 4.49739 21.9361 4.39068 22.0352 4.24846C22.123 4.10724 22.1353 3.9459 22.0695 3.79802C22.0036 3.65014 21.8648 3.5271 21.6818 3.45452C21.6818 3.45452 19.8509 2.71513 20.2444 1.63634C20.2875 1.51825 20.2822 1.39307 20.2292 1.27731C20.1761 1.16154 20.0779 1.06062 19.9473 0.987855C19.8145 0.920112 19.6579 0.883911 19.4976 0.883911C19.3373 0.883911 19.1807 0.920112 19.0479 0.987855C17.8675 1.54543 16.0446 3.31513 17.5462 5.98786C17.6159 6.09253 17.7243 6.17972 17.8583 6.23888C17.9922 6.29804 18.146 6.32663 18.3011 6.32119Z" fill="black"/>
</svg>
