<svg width="29" height="27" viewBox="0 0 29 27" fill="none" xmlns="http://www.w3.org/2000/svg">
<path d="M2.41663 13.5H26.5833" stroke="black" stroke-width="2" stroke-linecap="round" stroke-linejoin="round"/>
<path d="M24.1667 13.5V22.5C24.1667 23.0967 23.9121 23.669 23.4589 24.091C23.0057 24.5129 22.391 24.75 21.75 24.75H7.25004C6.6091 24.75 5.99441 24.5129 5.5412 24.091C5.08799 23.669 4.83337 23.0967 4.83337 22.5V13.5" stroke="black" stroke-width="2" stroke-linecap="round" stroke-linejoin="round"/>
<path d="M4.83337 9L24.1667 4.5" stroke="black" stroke-width="2" stroke-linecap="round" stroke-linejoin="round"/>
<path d="M10.7059 7.62749L10.1621 5.59124C10.0842 5.30462 10.0677 5.00652 10.1136 4.71398C10.1595 4.42144 10.2669 4.14018 10.4296 3.8863C10.5924 3.63241 10.8072 3.41087 11.062 3.23434C11.3167 3.05781 11.6063 2.92975 11.9142 2.85749L14.2584 2.31749C14.567 2.24513 14.888 2.23026 15.2028 2.27372C15.5177 2.31718 15.8202 2.41811 16.093 2.57073C16.3659 2.72335 16.6036 2.92464 16.7927 3.16305C16.9817 3.40146 17.1183 3.67229 17.1946 3.95999L17.7384 5.98499" stroke="black" stroke-width="2" stroke-linecap="round" stroke-linejoin="round"/>
</svg>
