<svg width="211" height="56" viewBox="0 0 211 56" fill="none" xmlns="http://www.w3.org/2000/svg">
<g clip-path="url(#clip0_189_40)">
<path d="M68.864 41.36C66.7307 41.36 65.0347 40.6667 63.776 39.28C62.624 38 62.048 36.3787 62.048 34.416C62.048 32.9653 62.3787 31.5147 63.04 30.064C64.2347 27.4613 65.952 25.104 68.192 22.992C70.4533 20.88 73.2587 19.1627 76.608 17.84C78.208 17.2 79.744 16.88 81.216 16.88C82.6667 16.88 83.84 17.1893 84.736 17.808C85.632 18.4053 86.08 19.216 86.08 20.24C86.08 20.752 85.9947 21.296 85.824 21.872C85.6747 22.4267 85.3547 23.0133 84.864 23.632C83.6907 25.1893 82.3147 26.4587 80.736 27.44C79.9253 27.9093 79.168 28.2293 78.464 28.4C77.7813 28.5707 77.1307 28.656 76.512 28.656C74.9973 28.656 74.1227 27.9307 73.888 26.48V26.352C73.888 26.0747 74.048 25.936 74.368 25.936C74.6667 25.936 74.8267 26.0747 74.848 26.352C75.0187 27.44 75.616 27.984 76.64 27.984C77.6427 27.984 78.7947 27.536 80.096 26.64C80.7787 26.192 81.3973 25.7013 81.952 25.168C82.5067 24.6133 83.0187 24.0267 83.488 23.408C84.4907 22.0213 84.992 20.8587 84.992 19.92C84.992 18.4053 83.9147 17.648 81.76 17.648C80.288 17.648 78.752 18.0107 77.152 18.736C75.5307 19.4613 74.0267 20.304 72.64 21.264C71.2533 22.2027 69.984 23.2693 68.832 24.464C67.0827 26.2773 65.7707 28.176 64.896 30.16C64.256 31.5893 63.936 33.0187 63.936 34.448C63.936 36.0907 64.3627 37.4027 65.216 38.384C66.2187 39.5147 67.6693 40.08 69.568 40.08C69.9733 40.08 70.4 40.048 70.848 39.984C71.296 39.9413 71.7653 39.8667 72.256 39.76C74.2827 39.312 76.6933 38.2133 79.488 36.464C81.664 35.12 83.2533 33.9787 84.256 33.04C84.9387 32.4 85.3973 32.08 85.632 32.08C85.6747 32.08 85.696 32.1013 85.696 32.144C85.696 32.2933 85.5573 32.496 85.28 32.752C84.2347 33.6693 83.3173 34.4587 82.528 35.12C81.7387 35.7813 81.088 36.2933 80.576 36.656C79.3387 37.552 78.112 38.3093 76.896 38.928C75.7013 39.5467 74.5173 40.0693 73.344 40.496C71.7227 41.072 70.2293 41.36 68.864 41.36ZM92.5538 38.352C92.1271 38.352 91.7324 38.2133 91.3698 37.936C91.0284 37.6587 90.8258 37.392 90.7618 37.136C90.6978 36.8373 91.0924 35.7707 91.9458 33.936L91.2098 34.992C90.8898 35.4613 90.5698 35.8773 90.2498 36.24C89.9298 36.6027 89.6311 36.9227 89.3538 37.2C88.5431 37.968 87.8604 38.288 87.3058 38.16C86.0258 37.8613 85.3858 37.136 85.3858 35.984C85.3858 35.0667 85.8231 33.8933 86.6978 32.464C86.9751 32.0373 87.3271 31.6107 87.7538 31.184C88.1804 30.7573 88.6711 30.3413 89.2258 29.936C90.6551 28.8907 92.0311 28.368 93.3538 28.368C94.1644 28.368 94.9324 28.5813 95.6578 29.008C95.8924 29.1787 96.0098 29.36 96.0098 29.552C96.0098 29.7013 95.9671 29.776 95.8818 29.776C95.8604 29.776 95.8391 29.7653 95.8178 29.744C95.3698 29.2533 94.7724 29.008 94.0258 29.008C93.1511 29.008 92.2018 29.3387 91.1778 30C90.1538 30.6613 89.2364 31.5467 88.4258 32.656C87.2738 34.256 86.6978 35.5573 86.6978 36.56C86.6978 37.136 86.9004 37.4987 87.3058 37.648C87.8178 37.8613 88.9058 36.912 90.5698 34.8C91.2524 33.968 91.8178 33.2213 92.2658 32.56C92.7351 31.8987 93.1084 31.3333 93.3858 30.864C93.5138 30.6293 93.7484 30.512 94.0898 30.512C94.7298 30.512 95.0498 30.704 95.0498 31.088C95.0498 31.152 95.0391 31.1947 95.0178 31.216C93.1618 34.16 92.2338 36.1547 92.2338 37.2C92.2338 37.456 92.3084 37.5947 92.4578 37.616C92.9058 37.744 93.6524 37.4133 94.6978 36.624C95.9564 35.6853 97.1404 34.4373 98.2498 32.88C98.4844 32.56 98.6978 32.4 98.8898 32.4C98.9538 32.4 98.9858 32.4213 98.9858 32.464C98.9858 32.5707 98.8898 32.7733 98.6978 33.072C98.2498 33.776 97.7484 34.4373 97.1938 35.056C96.6604 35.6747 96.0631 36.2507 95.4018 36.784C94.4631 37.5733 93.6951 38.064 93.0978 38.256C92.9484 38.32 92.7671 38.352 92.5538 38.352ZM97.077 39.312C96.9917 39.312 96.949 39.28 96.949 39.216C96.949 38.9387 97.6743 38.4267 99.125 37.68C99.4877 37.5093 99.8183 37.3387 100.117 37.168C100.416 36.976 100.672 36.8053 100.885 36.656C102.186 35.696 102.837 34.864 102.837 34.16C102.837 33.6267 102.314 33.36 101.269 33.36C98.837 33.3173 97.621 32.784 97.621 31.76C97.621 31.312 97.813 30.8853 98.197 30.48C98.645 29.968 99.3917 29.4773 100.437 29.008C101.568 28.496 102.602 28.24 103.541 28.24C104.373 28.24 105.002 28.4427 105.429 28.848C105.621 29.04 105.717 29.2747 105.717 29.552C105.717 29.8507 105.621 30.1173 105.429 30.352C105.237 30.5867 105.024 30.704 104.789 30.704C104.362 30.704 104.128 30.416 104.085 29.84C104.085 29.4347 104.021 29.2 103.893 29.136C103.765 29.072 103.424 29.04 102.869 29.04C102.165 29.04 101.376 29.2747 100.501 29.744C99.4557 30.2773 98.965 30.9173 99.029 31.664C99.0717 32.0907 99.8823 32.304 101.461 32.304C103.616 32.304 104.693 32.8267 104.693 33.872C104.693 35.0027 103.765 36.1333 101.909 37.264C100.736 37.9893 99.3063 38.6293 97.621 39.184C97.3863 39.2693 97.205 39.312 97.077 39.312ZM114.273 38.352C113.846 38.352 113.451 38.2133 113.089 37.936C112.747 37.6587 112.545 37.392 112.481 37.136C112.417 36.8373 112.811 35.7707 113.665 33.936L112.929 34.992C112.609 35.4613 112.289 35.8773 111.969 36.24C111.649 36.6027 111.35 36.9227 111.073 37.2C110.262 37.968 109.579 38.288 109.025 38.16C107.745 37.8613 107.105 37.136 107.105 35.984C107.105 35.0667 107.542 33.8933 108.417 32.464C108.694 32.0373 109.046 31.6107 109.473 31.184C109.899 30.7573 110.39 30.3413 110.945 29.936C112.374 28.8907 113.75 28.368 115.073 28.368C115.883 28.368 116.651 28.5813 117.377 29.008C117.611 29.1787 117.729 29.36 117.729 29.552C117.729 29.7013 117.686 29.776 117.601 29.776C117.579 29.776 117.558 29.7653 117.537 29.744C117.089 29.2533 116.491 29.008 115.745 29.008C114.87 29.008 113.921 29.3387 112.897 30C111.873 30.6613 110.955 31.5467 110.145 32.656C108.993 34.256 108.417 35.5573 108.417 36.56C108.417 37.136 108.619 37.4987 109.025 37.648C109.537 37.8613 110.625 36.912 112.289 34.8C112.971 33.968 113.537 33.2213 113.985 32.56C114.454 31.8987 114.827 31.3333 115.105 30.864C115.233 30.6293 115.467 30.512 115.809 30.512C116.449 30.512 116.769 30.704 116.769 31.088C116.769 31.152 116.758 31.1947 116.737 31.216C114.881 34.16 113.953 36.1547 113.953 37.2C113.953 37.456 114.027 37.5947 114.177 37.616C114.625 37.744 115.371 37.4133 116.417 36.624C117.675 35.6853 118.859 34.4373 119.969 32.88C120.203 32.56 120.417 32.4 120.609 32.4C120.673 32.4 120.705 32.4213 120.705 32.464C120.705 32.5707 120.609 32.7733 120.417 33.072C119.969 33.776 119.467 34.4373 118.913 35.056C118.379 35.6747 117.782 36.2507 117.121 36.784C116.182 37.5733 115.414 38.064 114.817 38.256C114.667 38.32 114.486 38.352 114.273 38.352ZM131.802 41.36C129.668 41.36 127.972 40.6667 126.714 39.28C125.562 38 124.986 36.3787 124.986 34.416C124.986 32.9653 125.316 31.5147 125.978 30.064C127.172 27.4613 128.89 25.104 131.13 22.992C133.391 20.88 136.196 19.1627 139.546 17.84C141.146 17.2 142.682 16.88 144.154 16.88C145.604 16.88 146.778 17.1893 147.674 17.808C148.57 18.4053 149.018 19.216 149.018 20.24C149.018 20.752 148.932 21.296 148.762 21.872C148.612 22.4267 148.292 23.0133 147.802 23.632C146.628 25.1893 145.252 26.4587 143.674 27.44C142.863 27.9093 142.106 28.2293 141.402 28.4C140.719 28.5707 140.068 28.656 139.45 28.656C137.935 28.656 137.06 27.9307 136.826 26.48V26.352C136.826 26.0747 136.986 25.936 137.306 25.936C137.604 25.936 137.764 26.0747 137.786 26.352C137.956 27.44 138.554 27.984 139.578 27.984C140.58 27.984 141.732 27.536 143.034 26.64C143.716 26.192 144.335 25.7013 144.89 25.168C145.444 24.6133 145.956 24.0267 146.426 23.408C147.428 22.0213 147.93 20.8587 147.93 19.92C147.93 18.4053 146.852 17.648 144.698 17.648C143.226 17.648 141.69 18.0107 140.09 18.736C138.468 19.4613 136.964 20.304 135.578 21.264C134.191 22.2027 132.922 23.2693 131.77 24.464C130.02 26.2773 128.708 28.176 127.834 30.16C127.194 31.5893 126.874 33.0187 126.874 34.448C126.874 36.0907 127.3 37.4027 128.154 38.384C129.156 39.5147 130.607 40.08 132.506 40.08C132.911 40.08 133.338 40.048 133.786 39.984C134.234 39.9413 134.703 39.8667 135.194 39.76C137.22 39.312 139.631 38.2133 142.426 36.464C144.602 35.12 146.191 33.9787 147.194 33.04C147.876 32.4 148.335 32.08 148.57 32.08C148.612 32.08 148.634 32.1013 148.634 32.144C148.634 32.2933 148.495 32.496 148.218 32.752C147.172 33.6693 146.255 34.4587 145.466 35.12C144.676 35.7813 144.026 36.2933 143.514 36.656C142.276 37.552 141.05 38.3093 139.833 38.928C138.639 39.5467 137.455 40.0693 136.282 40.496C134.66 41.072 133.167 41.36 131.802 41.36ZM150.563 38.608C149.049 38.288 148.291 37.584 148.291 36.496C148.291 35.856 148.494 34.928 148.899 33.712C149.198 32.7947 149.603 31.7493 150.115 30.576C150.649 29.3813 151.31 28.0587 152.099 26.608C153.998 23.0453 155.438 21.1893 156.419 21.04C156.505 21.0187 156.643 21.008 156.835 21.008C157.881 21.008 158.403 21.4987 158.403 22.48C158.403 23.824 157.273 25.7333 155.011 28.208C153.753 29.616 152.366 30.864 150.851 31.952C149.955 34.0853 149.507 35.6533 149.507 36.656C149.507 37.3173 149.71 37.712 150.115 37.84C150.435 37.9253 151.182 37.5413 152.355 36.688C153.699 35.7067 154.851 34.512 155.811 33.104C155.961 32.8907 156.099 32.784 156.227 32.784C156.313 32.784 156.355 32.8267 156.355 32.912C156.355 32.9973 156.302 33.1253 156.195 33.296C155.385 34.5973 154.329 35.8347 153.027 37.008C151.769 38.16 150.947 38.6933 150.563 38.608ZM151.203 31.088C151.971 30.512 152.611 29.936 153.123 29.36L155.011 27.12C156.761 25.0507 157.635 23.5253 157.635 22.544C157.635 22.352 157.529 22.256 157.315 22.256C156.953 22.256 156.377 22.7787 155.587 23.824C155.353 24.1653 155.107 24.496 154.851 24.816C154.595 25.136 154.339 25.4667 154.083 25.808C153.763 26.2773 153.465 26.736 153.187 27.184C152.931 27.632 152.686 28.0907 152.451 28.56C152.387 28.6453 152.249 28.9013 152.035 29.328C151.843 29.7547 151.566 30.3413 151.203 31.088ZM161.991 38.352C161.565 38.352 161.17 38.2133 160.807 37.936C160.466 37.6587 160.263 37.392 160.199 37.136C160.135 36.8373 160.53 35.7707 161.383 33.936L160.647 34.992C160.327 35.4613 160.007 35.8773 159.687 36.24C159.367 36.6027 159.069 36.9227 158.791 37.2C157.981 37.968 157.298 38.288 156.743 38.16C155.463 37.8613 154.823 37.136 154.823 35.984C154.823 35.0667 155.261 33.8933 156.135 32.464C156.413 32.0373 156.765 31.6107 157.191 31.184C157.618 30.7573 158.109 30.3413 158.663 29.936C160.093 28.8907 161.469 28.368 162.791 28.368C163.602 28.368 164.37 28.5813 165.095 29.008C165.33 29.1787 165.447 29.36 165.447 29.552C165.447 29.7013 165.405 29.776 165.319 29.776C165.298 29.776 165.277 29.7653 165.255 29.744C164.807 29.2533 164.21 29.008 163.463 29.008C162.589 29.008 161.639 29.3387 160.615 30C159.591 30.6613 158.674 31.5467 157.863 32.656C156.711 34.256 156.135 35.5573 156.135 36.56C156.135 37.136 156.338 37.4987 156.743 37.648C157.255 37.8613 158.343 36.912 160.007 34.8C160.69 33.968 161.255 33.2213 161.703 32.56C162.173 31.8987 162.546 31.3333 162.823 30.864C162.951 30.6293 163.186 30.512 163.527 30.512C164.167 30.512 164.487 30.704 164.487 31.088C164.487 31.152 164.477 31.1947 164.455 31.216C162.599 34.16 161.671 36.1547 161.671 37.2C161.671 37.456 161.746 37.5947 161.895 37.616C162.343 37.744 163.09 37.4133 164.135 36.624C165.394 35.6853 166.578 34.4373 167.687 32.88C167.922 32.56 168.135 32.4 168.327 32.4C168.391 32.4 168.423 32.4213 168.423 32.464C168.423 32.5707 168.327 32.7733 168.135 33.072C167.687 33.776 167.186 34.4373 166.631 35.056C166.098 35.6747 165.501 36.2507 164.839 36.784C163.901 37.5733 163.133 38.064 162.535 38.256C162.386 38.32 162.205 38.352 161.991 38.352ZM172.723 38.224C172.168 38.096 171.645 37.7973 171.155 37.328C171.048 37.2213 170.995 37.0613 170.995 36.848C170.995 35.9947 171.379 34.8 172.147 33.264C171.549 34.032 171.059 34.6613 170.675 35.152C170.291 35.6427 170.003 35.9947 169.811 36.208C168.979 37.168 168.285 37.744 167.731 37.936C167.539 38 167.347 38.032 167.155 38.032C166.365 38.032 165.907 37.712 165.779 37.072C165.693 36.88 165.651 36.6133 165.651 36.272C165.651 35.2267 166.344 33.232 167.731 30.288C168.051 29.6053 168.413 29.264 168.819 29.264C169.117 29.264 169.405 29.488 169.683 29.936L168.339 32.592C167.869 33.5093 167.507 34.2987 167.251 34.96C167.016 35.6213 166.899 36.1333 166.899 36.496C166.899 37.008 167.069 37.264 167.411 37.264C167.965 37.264 168.861 36.5493 170.099 35.12C170.76 34.352 171.4 33.4987 172.019 32.56C172.659 31.6213 173.288 30.5973 173.907 29.488C174.035 29.232 174.227 29.104 174.483 29.104C174.696 29.104 174.899 29.2 175.091 29.392C175.304 29.5627 175.389 29.6907 175.347 29.776C173.277 34.064 172.243 36.528 172.243 37.168C172.243 37.424 172.328 37.5307 172.499 37.488C174.227 37.3387 176.083 35.8133 178.067 32.912C178.173 32.72 178.291 32.6133 178.419 32.592C178.547 32.5493 178.611 32.592 178.611 32.72C178.611 32.8053 178.568 32.9227 178.483 33.072C177.544 34.544 176.424 35.8347 175.123 36.944C173.971 37.904 173.171 38.3307 172.723 38.224ZM184.653 38.352C184.247 38.352 183.863 38.2453 183.501 38.032C183.159 37.84 182.935 37.6267 182.829 37.392C182.765 37.2213 182.733 36.9973 182.733 36.72C182.733 36.3573 182.775 35.9413 182.861 35.472C182.946 34.9813 183.074 34.4587 183.245 33.904C183.095 34.1813 182.882 34.5013 182.605 34.864C182.349 35.2267 182.029 35.6533 181.645 36.144C180.493 37.5093 179.554 38.192 178.829 38.192C178.722 38.192 178.637 38.1813 178.573 38.16C177.293 37.8613 176.653 37.136 176.653 35.984C176.653 35.0667 177.09 33.8933 177.965 32.464C178.519 31.5893 179.362 30.7467 180.493 29.936C181.943 28.8693 183.319 28.336 184.621 28.336C185.111 28.336 185.57 28.4107 185.997 28.56L186.957 26.832C187.447 25.9573 187.853 25.168 188.173 24.464C188.514 23.76 188.791 23.152 189.005 22.64C189.175 22.256 189.773 22.064 190.797 22.064C191.266 22.064 191.469 22.1173 191.405 22.224L187.181 29.232C187.266 29.36 187.287 29.5093 187.245 29.68C187.223 29.808 187.17 29.8293 187.085 29.744L186.957 29.616L186.541 30.32C184.919 33.072 184.109 35.216 184.109 36.752C184.109 37.3493 184.311 37.648 184.717 37.648C185.165 37.648 185.847 37.3067 186.765 36.624C188.023 35.6853 189.207 34.4373 190.317 32.88C190.551 32.56 190.765 32.4 190.957 32.4C191.021 32.4 191.053 32.4213 191.053 32.464C191.053 32.5707 190.957 32.7733 190.765 33.072C189.847 34.48 188.781 35.7173 187.565 36.784C186.605 37.616 185.858 38.1067 185.325 38.256C185.111 38.32 184.887 38.352 184.653 38.352ZM178.573 37.648C179.085 37.8613 180.173 36.912 181.837 34.8C182.477 33.9893 183.031 33.264 183.501 32.624C183.97 31.9627 184.354 31.376 184.653 30.864C184.738 30.6933 184.866 30.4587 185.037 30.16C185.229 29.84 185.463 29.4667 185.741 29.04C185.677 29.0187 185.602 29.008 185.517 29.008C185.453 29.008 185.389 29.008 185.325 29.008C184.45 29.008 183.511 29.3387 182.509 30C181.506 30.64 180.567 31.5253 179.693 32.656C179.074 33.4453 178.626 34.1707 178.349 34.832C178.093 35.4933 177.965 36.0693 177.965 36.56C177.965 37.136 178.167 37.4987 178.573 37.648ZM195.691 26.768C195.349 26.8107 194.976 26.768 194.571 26.64C194.187 26.512 193.995 26.352 193.995 26.16C193.995 26.032 194.037 25.904 194.123 25.776C194.208 25.6267 194.315 25.4773 194.443 25.328C194.805 24.88 195.019 24.6027 195.083 24.496C195.147 24.368 195.264 24.304 195.435 24.304C195.925 24.304 196.309 24.5387 196.587 25.008C196.608 25.0293 196.619 25.072 196.619 25.136C196.619 25.328 196.512 25.6053 196.299 25.968C196.021 26.48 195.819 26.7467 195.691 26.768ZM190.859 38.32C189.621 38.0427 189.003 37.552 189.003 36.848C189.003 36.5067 189.419 35.3013 190.251 33.232C190.485 32.8267 190.795 32.24 191.179 31.472C191.584 30.6827 192.085 29.7227 192.683 28.592C192.789 28.4213 193.024 28.336 193.387 28.336C193.707 28.336 194.016 28.3893 194.315 28.496C194.635 28.5813 194.763 28.6667 194.699 28.752C191.883 32.7413 190.475 35.504 190.475 37.04C190.475 37.488 190.624 37.712 190.923 37.712C191.499 37.712 192.405 37.3067 193.643 36.496C195.115 35.4933 196.352 34.288 197.355 32.88C197.568 32.5387 197.781 32.368 197.995 32.368C198.059 32.368 198.091 32.4 198.091 32.464C198.091 32.5707 197.995 32.7733 197.803 33.072C196.864 34.544 195.563 35.8453 193.899 36.976C192.405 38 191.392 38.448 190.859 38.32ZM203.804 38.352C203.377 38.352 202.982 38.2133 202.62 37.936C202.278 37.6587 202.076 37.392 202.012 37.136C201.948 36.8373 202.342 35.7707 203.196 33.936L202.46 34.992C202.14 35.4613 201.82 35.8773 201.5 36.24C201.18 36.6027 200.881 36.9227 200.604 37.2C199.793 37.968 199.11 38.288 198.556 38.16C197.276 37.8613 196.636 37.136 196.636 35.984C196.636 35.0667 197.073 33.8933 197.948 32.464C198.225 32.0373 198.577 31.6107 199.004 31.184C199.43 30.7573 199.921 30.3413 200.476 29.936C201.905 28.8907 203.281 28.368 204.604 28.368C205.414 28.368 206.182 28.5813 206.908 29.008C207.142 29.1787 207.26 29.36 207.26 29.552C207.26 29.7013 207.217 29.776 207.132 29.776C207.11 29.776 207.089 29.7653 207.068 29.744C206.62 29.2533 206.022 29.008 205.276 29.008C204.401 29.008 203.452 29.3387 202.428 30C201.404 30.6613 200.486 31.5467 199.676 32.656C198.524 34.256 197.948 35.5573 197.948 36.56C197.948 37.136 198.15 37.4987 198.556 37.648C199.068 37.8613 200.156 36.912 201.82 34.8C202.502 33.968 203.068 33.2213 203.516 32.56C203.985 31.8987 204.358 31.3333 204.636 30.864C204.764 30.6293 204.998 30.512 205.34 30.512C205.98 30.512 206.3 30.704 206.3 31.088C206.3 31.152 206.289 31.1947 206.268 31.216C204.412 34.16 203.484 36.1547 203.484 37.2C203.484 37.456 203.558 37.5947 203.708 37.616C204.156 37.744 204.902 37.4133 205.948 36.624C207.206 35.6853 208.39 34.4373 209.5 32.88C209.734 32.56 209.948 32.4 210.14 32.4C210.204 32.4 210.236 32.4213 210.236 32.464C210.236 32.5707 210.14 32.7733 209.948 33.072C209.5 33.776 208.998 34.4373 208.444 35.056C207.91 35.6747 207.313 36.2507 206.652 36.784C205.713 37.5733 204.945 38.064 204.348 38.256C204.198 38.32 204.017 38.352 203.804 38.352Z" fill="black"/>
<path d="M11.4313 55.7818C10.861 55.4159 10.8803 55.4801 11.0917 54.9217C11.7581 53.1182 12.9051 50.7819 14.539 47.8936L15.1478 46.8154L15.026 46.4174C14.9363 46.1222 14.9043 45.8205 14.9043 45.2493C14.9043 44.5112 14.9107 44.4598 15.1093 44.0619C15.372 43.5228 15.7052 43.1377 16.1666 42.8424L16.5318 42.6049L15.9744 42.438C13.6035 41.7256 9.96395 41.148 7.40729 41.0774C6.26031 41.0453 6.57429 41.103 8.30436 41.2378C9.45134 41.3213 11.2903 41.5652 12.5655 41.7898C13.5523 41.9695 15.5322 42.4509 15.8847 42.5985L16.0961 42.6948L15.8078 42.8745C15.5386 43.0478 15.1606 43.4907 14.9299 43.9143C14.8402 44.0747 14.7249 44.1325 13.9688 44.3636C11.4505 45.153 9.336 45.4482 7.35602 45.2942C5.73488 45.1658 4.55586 44.8513 3.2551 44.1967C2.30036 43.7153 1.53143 43.1505 0.692026 42.3354L0 41.655L0.179411 41.3983C2.14657 38.5421 5.56187 37.021 8.97717 37.4767C11.1302 37.7655 13.2127 38.6127 15.4169 40.1082C16.4357 40.8014 17.8839 41.931 17.8839 42.0401C17.8839 42.0594 17.839 42.0722 17.7877 42.0722C17.6724 42.0722 17.1534 42.3225 17.1918 42.361C17.2046 42.3739 17.3456 42.3546 17.4994 42.3225C17.7621 42.2583 18.3773 42.284 18.64 42.3675C18.7169 42.3931 18.704 42.3674 18.6015 42.2776C18.5246 42.207 18.4285 42.1364 18.3901 42.1236C18.2683 42.085 18.4926 41.7256 18.8963 41.2892L19.2679 40.8977L19.0244 40.4163C18.6848 39.7295 18.5567 39.1262 18.5631 38.1891C18.5759 36.4369 19.332 35.0377 20.5687 34.4408C21.0236 34.2226 21.0941 34.2097 21.6772 34.2097H22.3052V33.8824C22.3052 32.817 21.69 30.7118 20.7289 28.4782C20.024 26.8479 17.9415 22.753 17.8134 22.753C17.7877 22.753 18.0312 23.2536 18.3516 23.8634C19.4025 25.8723 20.6007 28.4846 21.2159 30.102C21.7797 31.5975 22.177 33.093 22.177 33.7476V34.03L21.5875 34.0685L20.9916 34.1071L20.5174 33.6128C15.9167 28.7927 12.9563 23.6901 12.1041 19.1266C11.9952 18.5233 11.9632 18.119 11.9632 17.2332C11.9567 16.0523 12.0016 15.7121 12.2835 14.8392C12.4758 14.2615 12.495 14.2487 13.296 14.2936C15.2311 14.4156 17.9095 16.2833 19.8126 18.8378C21.9399 21.6876 23.1574 25.0379 23.465 28.8183C23.5547 29.9672 23.5098 31.9826 23.3624 33.1828C23.2215 34.3574 23.2407 34.2996 22.9267 34.2611L22.6576 34.2354L22.978 34.4087L23.2984 34.582L23.638 34.2033C24.4197 33.3433 25.6564 31.5975 26.4061 30.2946C26.8418 29.5436 26.97 29.1906 26.9123 28.9467C26.8931 28.844 26.8674 28.3691 26.861 27.9005C26.8546 26.8351 26.8034 26.7067 26.1946 26.1611C24.7529 24.8582 23.8879 23.9276 22.8755 22.5605C20.2675 19.056 18.1402 14.8199 17.2815 11.4246C16.6728 9.01777 16.6408 6.77135 17.2046 5.109L17.4097 4.49284L17.8518 4.51209C19.1398 4.56986 20.7994 5.12825 21.9912 5.89203C23.3945 6.7906 24.817 8.3631 25.8294 10.1346C28.1233 14.1396 29.0717 19.7556 28.2002 24.2356C28.0272 25.1535 27.6043 26.5398 27.5018 26.5398C27.4762 26.5398 27.3865 26.2125 27.3032 25.821C26.5663 22.2139 25.2143 18.2666 23.5419 14.8135C23.0356 13.7673 22.1642 12.1628 22.1001 12.1628C22.0809 12.1628 22.3692 12.7789 22.7473 13.5299C23.875 15.7699 24.8234 18.0355 25.6051 20.314C26.6111 23.2665 27.2647 26.1226 27.2263 27.3742C27.2135 27.7529 27.2327 27.9005 27.3224 28.0353C27.3801 28.1316 27.4569 28.2086 27.489 28.2086C27.5723 28.2086 28.4886 26.5077 28.9307 25.5322C29.6868 23.8762 29.9624 22.8429 30.2827 20.4809C31.2759 13.1897 33.2879 7.22063 35.9471 3.65845C36.5559 2.84974 37.6964 1.70728 38.3436 1.26441C38.9972 0.81513 40.016 0.333753 40.6952 0.15404C41.131 0.0385096 41.4193 0.00641873 42.169 0.00641873L43.0981 0L43.4249 0.661088C44.4437 2.68928 44.354 5.28871 43.1814 8.24757C42.1241 10.9112 40.1826 13.8379 37.5811 16.6877C37.0044 17.3231 35.2487 19.0689 34.64 19.6144C33.4097 20.7184 31.686 22.0662 30.8979 22.5284C30.853 22.554 30.9555 22.3101 31.135 21.9764C31.5451 21.1934 32.7497 18.9469 33.7493 17.0728C34.1786 16.2641 35.0372 14.6595 35.6524 13.5106C36.2675 12.3617 36.7609 11.4118 36.7481 11.399C36.7097 11.3605 36.7801 11.2321 35.0885 14.3129C34.2171 15.9046 33.2944 17.5798 33.038 18.0355C32.7817 18.4977 32.4806 19.0432 32.3652 19.255C32.2499 19.4668 31.8975 20.0958 31.5835 20.6542C30.7569 22.1368 30.6352 22.3936 30.4301 23.1317C30.3276 23.4975 30.2571 23.8056 30.2635 23.8185C30.3084 23.857 31.5515 22.8814 32.3076 22.2075C35.3769 19.4668 38.6512 17.4258 41.5218 16.4566C43.662 15.7313 45.5394 15.6607 47.0709 16.2384C47.6924 16.4695 48 16.6556 48 16.8032C48 17.0599 47.7885 17.721 47.5707 18.1575C46.2827 20.7377 42.0537 22.5476 35.7934 23.2023C34.6015 23.3307 31.9167 23.4462 31.9808 23.3756C32.0128 23.3435 34.467 22.2845 37.7477 20.8917C39.6828 20.0701 40.2851 19.807 40.2018 19.8006C40.157 19.8006 38.7153 20.3718 36.998 21.0778C35.2807 21.7774 33.352 22.5605 32.7177 22.8172C30.994 23.5168 30.4814 23.9789 29.3985 25.7953C29.0653 26.3473 26.9187 30.5834 26.9187 30.6861C26.9187 30.7503 27.3672 30.9043 27.5723 30.9043C27.6876 30.9043 29.1806 30.455 30.8915 29.903C35.0629 28.568 36.3252 28.1444 36.2163 28.1444C36.165 28.1444 34.7809 28.5488 33.1406 29.0494C31.5002 29.5436 29.5971 30.1213 28.9115 30.3331C28.2259 30.5385 27.6492 30.6925 27.63 30.6797C27.5018 30.5449 28.3989 29.274 29.155 28.5295C31.6348 26.0649 35.9343 24.0752 40.1826 23.4141C41.2655 23.2472 43.2006 23.2601 44.0272 23.4398C45.0268 23.658 45.7958 24.0046 46.4493 24.5373C46.7505 24.7876 46.7633 24.839 46.6159 25.4423C45.9944 27.9968 43.0597 30.1277 38.5871 31.2637C36.1906 31.8799 34.0569 32.1366 31.7565 32.0853C30.0392 32.0532 28.9756 31.8799 28.04 31.4755C27.7966 31.3728 26.8867 31.3985 26.656 31.514C26.3805 31.6617 26.0088 32.1174 25.4193 33.0544C25.1053 33.5487 24.6952 34.1905 24.503 34.4857L24.1634 35.012L23.984 34.9222C23.5739 34.7168 23.5611 34.7681 23.9391 35.1532C24.3748 35.6089 24.676 36.1802 24.8811 36.9311C25.0477 37.5344 25.0797 38.9465 24.9387 39.5049C24.7913 40.1146 24.4069 40.8591 24.0609 41.2122C23.529 41.7577 23.5162 41.7577 23.1766 41.2442C22.7409 40.5896 22.6704 40.5832 22.9267 41.2122C23.2022 41.8925 23.324 42.5472 23.3304 43.3623V43.9849L23.7982 43.8565C24.0993 43.7731 24.5735 43.7217 25.1822 43.6961C26.2139 43.6511 26.2267 43.619 25.304 43.3559L24.8106 43.2083L24.8426 43.0093C24.9964 42.0915 25.2976 41.4946 25.9511 40.8527C26.7265 40.0825 27.662 39.6974 28.7193 39.6974C29.7125 39.6974 30.4237 39.9927 31.1093 40.6794C31.5515 41.1223 31.481 40.9362 31.026 40.4484C30.1738 39.5434 28.5014 39.216 27.2968 39.7231C27.2135 39.7616 27.175 39.6782 27.0917 39.2674C26.6304 37.098 27.2839 34.9671 28.7321 33.8696C29.4177 33.3497 30.4557 32.9261 31.2119 32.8555C31.5579 32.8234 31.5707 32.8298 31.9936 33.1507C32.5382 33.5615 32.9419 34.0685 33.2623 34.7232C33.5571 35.3265 33.6211 35.5704 33.7044 36.2765C33.8518 37.605 33.4353 39.0363 32.5447 40.2815C32.3524 40.5511 32.173 40.8014 32.1474 40.8399C32.1217 40.8784 32.3076 40.795 32.5575 40.6538C33.1149 40.3393 34.1274 39.9927 34.8899 39.8579C35.6268 39.7295 36.7609 39.7359 37.4017 39.8643C38.7153 40.1339 40.016 40.9618 40.7529 41.9952L40.8875 42.1877L40.708 42.5151C39.7661 44.2801 37.3953 45.3391 34.9604 45.076C33.9608 44.9669 32.9676 44.5946 32.3396 44.0812L32.0256 43.8308L32.0128 43.0927C32 42.6563 31.9616 42.2648 31.9039 42.1171C31.8206 41.8797 31.8142 41.8989 31.8398 42.5022C31.8847 43.6383 31.6155 44.3828 30.8979 45.0888C30.4109 45.5766 29.7765 45.9296 29.0845 46.1158C28.8282 46.1799 28.6872 46.2377 28.7769 46.2377C29.0332 46.2441 29.6676 46.0644 30.0905 45.8654C30.6672 45.5895 31.199 45.1209 31.5899 44.5304L31.9423 44.0105L32.2627 44.2544C32.4421 44.3892 32.7113 44.5561 32.8586 44.6331C33.1918 44.8 33.2559 44.9861 33.3072 45.8911C33.3648 47.0272 33.0573 47.8808 32.346 48.5291C30.9555 49.787 28.7193 49.1966 27.8286 47.3352C27.6876 47.0336 27.5402 46.6677 27.5018 46.5265C27.4313 46.2698 27.4185 46.257 27.0853 46.1928C26.2843 46.0323 25.4642 45.3648 25.0925 44.5818L24.9003 44.1774L24.503 44.2095C23.6828 44.2865 22.5679 44.8578 21.7605 45.6151C21.3632 45.9874 21.2735 46.1093 21.1902 46.3982C20.9147 47.3352 20.4726 47.945 19.851 48.2531C19.364 48.4906 18.9732 48.5676 18.2235 48.5611H17.5699L17.2303 48.8885C16.7689 49.3378 16.1538 49.7806 15.1286 50.416C14.6544 50.7113 14.1482 51.0707 14.0008 51.2183C13.5843 51.6484 12.8154 53.3813 12.1746 55.3389C12.0272 55.7882 11.9247 56 11.8606 56C11.8094 56 11.6171 55.9037 11.4313 55.7818ZM15.2311 49.5239C15.7757 49.3121 16.3588 48.9334 16.5831 48.6446C16.7305 48.4456 16.7689 48.4328 17.0124 48.4585L17.2751 48.497L16.9227 48.3558C16.3845 48.1375 15.9936 47.8744 15.6476 47.4893L15.3336 47.1363L15.4041 47.3802C15.4618 47.6112 15.4489 47.6626 15.2054 48.0926C14.9171 48.5997 14.4237 49.6266 14.4237 49.7229C14.4237 49.7935 14.6736 49.7293 15.2311 49.5239ZM21.485 44.954C21.5298 44.9284 21.8118 44.7487 22.1129 44.5561L22.6576 44.2095L22.696 43.8308C22.7217 43.6254 22.7601 43.266 22.7857 43.035C22.8178 42.7718 22.805 42.5151 22.7601 42.3482L22.6896 42.085L22.0873 42.1171C21.1005 42.1749 20.3124 41.931 19.7293 41.379C19.5499 41.2186 19.4922 41.2442 19.6139 41.4304C19.6588 41.501 19.6075 41.5908 19.4217 41.7834C19.2871 41.9246 19.1269 42.1428 19.0757 42.2648L18.986 42.4958L19.4089 42.714C20.2483 43.1441 21.0877 44.2224 21.1902 44.9926C21.2094 45.1338 21.2415 45.3199 21.2607 45.4097C21.2927 45.5445 21.3056 45.5317 21.3504 45.2814C21.3825 45.1273 21.4401 44.9797 21.485 44.954Z" fill="#0A0A0A"/>
</g>
<defs>
<clipPath id="clip0_189_40">
<rect width="211" height="56" fill="white"/>
</clipPath>
</defs>
</svg>
