<svg width="22" height="21" viewBox="0 0 22 21" fill="none" xmlns="http://www.w3.org/2000/svg">
<path d="M20.8881 14.7781V17.4094C20.8892 17.6537 20.8322 17.8955 20.7206 18.1193C20.6091 18.3431 20.4454 18.5441 20.2402 18.7092C20.035 18.8743 19.7927 19.0001 19.5289 19.0783C19.265 19.1566 18.9855 19.1857 18.7081 19.1637C15.631 18.8704 12.6751 17.9481 10.0781 16.4709C7.66194 15.1242 5.61345 13.3275 4.07812 11.2082C2.38809 8.91999 1.33636 6.31477 1.00812 3.60361C0.983127 3.36105 1.01599 3.1166 1.10462 2.8858C1.19324 2.65499 1.33569 2.44291 1.52288 2.26304C1.71008 2.08317 1.93792 1.93946 2.19191 1.84106C2.44589 1.74266 2.72046 1.69172 2.99812 1.69149H5.99812C6.48342 1.6873 6.95391 1.83804 7.32188 2.11561C7.68985 2.39317 7.93019 2.77863 7.99812 3.20013C8.12474 4.04222 8.35957 4.86905 8.69812 5.66483C8.83266 5.97877 8.86178 6.31996 8.78202 6.64797C8.70227 6.97599 8.51698 7.27707 8.24812 7.51555L6.97812 8.62949C8.40167 10.8254 10.4746 12.6436 12.9781 13.8922L14.2481 12.7783C14.52 12.5424 14.8633 12.3799 15.2372 12.31C15.6112 12.24 16.0002 12.2655 16.3581 12.3835C17.2654 12.6805 18.2081 12.8865 19.1681 12.9975C19.6539 13.0576 20.0975 13.2722 20.4146 13.6005C20.7318 13.9288 20.9003 14.3479 20.8881 14.7781Z" stroke="#F1F1EF" stroke-width="2" stroke-linecap="round" stroke-linejoin="round"/>
</svg>
