<svg width="51" height="47" viewBox="0 0 51 47" fill="none" xmlns="http://www.w3.org/2000/svg">
<path fill-rule="evenodd" clip-rule="evenodd" d="M44.625 27.5625C41.4375 27.5625 41.4375 26.0938 38.25 26.0938C37.6045 26.0938 37.0935 26.1559 36.6562 26.2519V12.875C36.6562 10.4418 38.7972 8.46875 41.4375 8.46875C44.0778 8.46875 46.2188 10.4418 46.2188 12.875C46.2188 13.2804 46.5757 13.6094 47.0156 13.6094C47.4555 13.6094 47.8125 13.2804 47.8125 12.875C47.8125 9.63053 44.9581 7 41.4375 7C37.9169 7 35.0625 9.63053 35.0625 12.875V15.8125H19.125V12.875C19.125 10.4418 21.2659 8.46875 23.9062 8.46875C26.5466 8.46875 28.6875 10.4418 28.6875 12.875C28.6875 13.2804 29.0445 13.6094 29.4844 13.6094C29.9242 13.6094 30.2812 13.2804 30.2812 12.875C30.2812 9.63053 27.4268 7 23.9062 7C20.3857 7 17.5312 9.63053 17.5312 12.875V15.8125V17.2812V21.6875V23.1562V27.4044C15.8105 27.0259 15.292 26.0938 12.75 26.0938C9.5625 26.0938 9.5625 27.5625 6.375 27.5625C3.1875 27.5625 3.1875 26.0938 0 26.0938V27.5625C3.1875 27.5625 3.1875 29.0312 6.375 29.0312C9.5625 29.0312 9.5625 27.5625 12.75 27.5625C15.9375 27.5625 15.9375 29.0312 19.125 29.0312C22.3125 29.0312 22.3125 27.5625 25.5 27.5625C28.6875 27.5625 28.6875 29.0312 31.875 29.0312C35.0625 29.0312 35.0625 27.5625 38.25 27.5625C41.4375 27.5625 41.4375 29.0312 44.625 29.0312C47.8125 29.0312 47.8125 27.5625 51 27.5625V26.0938C47.8125 26.0938 47.8125 27.5625 44.625 27.5625ZM19.125 17.2812H35.0625V21.6875H19.125V17.2812ZM25.5 26.0938C22.3125 26.0938 22.3125 27.5625 19.125 27.5625V23.1562H35.0625V26.8281C34.2656 27.1953 33.4688 27.5625 31.875 27.5625C28.6875 27.5625 28.6875 26.0938 25.5 26.0938ZM0 37.8438C3.1875 37.8438 3.1875 39.3125 6.375 39.3125C9.5625 39.3125 9.5625 37.8438 12.75 37.8438C15.9375 37.8438 15.9375 39.3125 19.125 39.3125C22.3125 39.3125 22.3125 37.8438 25.5 37.8438C28.6875 37.8438 28.6875 39.3125 31.875 39.3125C35.0625 39.3125 35.0625 37.8438 38.25 37.8438C41.4375 37.8438 41.4375 39.3125 44.625 39.3125C47.8125 39.3125 47.8125 37.8438 51 37.8438V39.3125C47.8125 39.3125 47.8125 40.7812 44.625 40.7812C41.4375 40.7812 41.4375 39.3125 38.25 39.3125C35.0625 39.3125 35.0625 40.7812 31.875 40.7812C28.6875 40.7812 28.6875 39.3125 25.5 39.3125C22.3125 39.3125 22.3125 40.7812 19.125 40.7812C15.9375 40.7812 15.9375 39.3125 12.75 39.3125C9.5625 39.3125 9.5625 40.7812 6.375 40.7812C3.1875 40.7812 3.1875 39.3125 0 39.3125V37.8438ZM0 31.9688C3.1875 31.9688 3.1875 33.4375 6.375 33.4375C9.5625 33.4375 9.5625 31.9688 12.75 31.9688C15.9375 31.9688 15.9375 33.4375 19.125 33.4375C22.3125 33.4375 22.3125 31.9688 25.5 31.9688C28.6875 31.9688 28.6875 33.4375 31.875 33.4375C35.0625 33.4375 35.0625 31.9688 38.25 31.9688C41.4375 31.9688 41.4375 33.4375 44.625 33.4375C47.8125 33.4375 47.8125 31.9688 51 31.9688V33.4375C47.8125 33.4375 47.8125 34.9062 44.625 34.9062C41.4375 34.9062 41.4375 33.4375 38.25 33.4375C35.0625 33.4375 35.0625 34.9062 31.875 34.9062C28.6875 34.9062 28.6875 33.4375 25.5 33.4375C22.3125 33.4375 22.3125 34.9062 19.125 34.9062C15.9375 34.9062 15.9375 33.4375 12.75 33.4375C9.5625 33.4375 9.5625 34.9062 6.375 34.9062C3.1875 34.9062 3.1875 33.4375 0 33.4375V31.9688Z" fill="#202B37"/>
</svg>
