<svg width="50" height="49" viewBox="0 0 50 49" fill="none" xmlns="http://www.w3.org/2000/svg">
<path d="M43.75 16.3334L39.5833 20.4167L36.4583 12.8625C36.1636 12.0894 35.6368 11.422 34.9473 10.9482C34.2578 10.4743 33.4379 10.2164 32.5958 10.2084H17.5C16.651 10.1892 15.8164 10.4248 15.1079 10.8835C14.3993 11.3421 13.8507 12.002 13.5354 12.7747L10.4167 20.4167L6.25 16.3334" stroke="black" stroke-width="2" stroke-linecap="round" stroke-linejoin="round"/>
<path d="M14.5833 28.5833H14.6046" stroke="black" stroke-width="2" stroke-linecap="round" stroke-linejoin="round"/>
<path d="M35.4167 28.5833H35.4379" stroke="black" stroke-width="2" stroke-linecap="round" stroke-linejoin="round"/>
<path d="M39.5833 20.4167H10.4167C8.11548 20.4167 6.25 22.2449 6.25 24.5V32.6667C6.25 34.9219 8.11548 36.75 10.4167 36.75H39.5833C41.8845 36.75 43.75 34.9219 43.75 32.6667V24.5C43.75 22.2449 41.8845 20.4167 39.5833 20.4167Z" stroke="black" stroke-width="2" stroke-linecap="round" stroke-linejoin="round"/>
<path d="M10.4167 36.75V40.8333" stroke="black" stroke-width="2" stroke-linecap="round" stroke-linejoin="round"/>
<path d="M39.5833 36.75V40.8333" stroke="black" stroke-width="2" stroke-linecap="round" stroke-linejoin="round"/>
</svg>
