<svg width="34" height="31" viewBox="0 0 34 31" fill="none" xmlns="http://www.w3.org/2000/svg">
<path d="M28.3334 11.625V7.74996C28.3334 7.06482 28.0348 6.40774 27.5035 5.92327C26.9721 5.4388 26.2515 5.16663 25.5 5.16663H8.50002C7.74857 5.16663 7.0279 5.4388 6.49655 5.92327C5.9652 6.40774 5.66669 7.06482 5.66669 7.74996V11.625" stroke="black" stroke-width="2" stroke-linecap="round" stroke-linejoin="round"/>
<path d="M2.83331 14.2083V20.6667C2.83331 21.3518 3.13182 22.0089 3.66318 22.4934C4.19453 22.9778 4.9152 23.25 5.66665 23.25H28.3333C29.0848 23.25 29.8054 22.9778 30.3368 22.4934C30.8681 22.0089 31.1666 21.3518 31.1666 20.6667V14.2083C31.1666 13.5232 30.8681 12.8661 30.3368 12.3816C29.8054 11.8972 29.0848 11.625 28.3333 11.625C27.5819 11.625 26.8612 11.8972 26.3298 12.3816C25.7985 12.8661 25.5 13.5232 25.5 14.2083V16.7917H8.49998V14.2083C8.49998 13.5232 8.20147 12.8661 7.67012 12.3816C7.13876 11.8972 6.41809 11.625 5.66665 11.625C4.9152 11.625 4.19453 11.8972 3.66318 12.3816C3.13182 12.8661 2.83331 13.5232 2.83331 14.2083Z" stroke="black" stroke-width="2" stroke-linecap="round" stroke-linejoin="round"/>
<path d="M5.66669 23.25V25.8333" stroke="black" stroke-width="2" stroke-linecap="round" stroke-linejoin="round"/>
<path d="M28.3333 23.25V25.8333" stroke="black" stroke-width="2" stroke-linecap="round" stroke-linejoin="round"/>
<path d="M17 5.16663V16.7916" stroke="black" stroke-width="2" stroke-linecap="round" stroke-linejoin="round"/>
</svg>
